<svg version="1.1" id="svg2" xmlns="http://www.w3.org/2000/svg" x="0" y="0" viewBox="0 0 2000 663.1" style="enable-background:new 0 0 2000 663.1" xml:space="preserve"><style>.st2{fill-rule:evenodd;clip-rule:evenodd;fill:#004b8d}</style><g id="Layer1000" transform="matrix(.38201 0 0 -.38201 571.367 544.785)"><path id="path2" d="m-600.6 718.4-895.1-521.9 302.7-506.2 809 276.5C-257.9 9.9-94.8 187-157.4 426.5-212 635.7-412.1 725.9-600.6 718.4z" style="fill-rule:evenodd;clip-rule:evenodd;fill:#007dc3"/><path id="path4" d="m-600.6 718.4-895.1-521.9v1229.6h608c204.9 0 373.8-102 425.9-278 55.6-188.2-48-376.8-138.8-429.7z" style="fill-rule:evenodd;clip-rule:evenodd;fill:#78bde8"/><path id="path6" class="st2" d="M146.9 145.8c57.9-3.3 134.8-2.4 192.3-.2 203.3 7.9 233.4 175.1 173 254.6-17.7 23.3-30.8 25.3-54.4 44.6l24.1 21.5c56.5 54.7 59.2 164.9-14.1 218.5-70.1 51.3-218.4 45.2-319.2 41.4l-1.7-580.4zm984.6.2 105.6-.6 1.2 364.6c17.4-14.7 52.4-67.3 69-90.4l203-277.5 74.7-.1.9 583.8-104 .7c-9.3-32.4 2.2-281.4-3.6-350-19.8 20.1-46.2 60.2-63.8 84.7l-194.9 265-86 .2-2.1-580.4zm-576.2.1 111.2-.5c9.9 28.6 19.7 58.2 28.7 86.4 6.1 19.2 19.3 76.7 33.9 85.7l180.6-.6 56.6-171.8h116.2c-2.9 25.3-130.8 377.6-150.4 433.1-16 45.3-39.7 102.6-50.8 146.8l-128 .7-198-579.8zm2402.3 14.6c69.3-18 280.1-66.2 350.9-51.1l.2 98.1c-64.1 13.6-142.4 5.9-241.5 38L3066 390l173.4 1.9.4 96.7-173.4 1.7-.4 134.2 224.5 1.7 1 99.5-333.8.4-.1-565.4zm-1256.4-15.4h332.6l1.4 99.4-223.2.8-.8 143.4c25.6 8.2 136.3 1.4 173.4 3.4l.5 97.1-173 .8-.8 136h222.8l.9 99.5-333.9.5.1-580.9zm1667.7 64.6.1-101.5c93-7.1 217.8 14.6 283.5 55.7 67.3 42.1 122.8 134.7 59.3 230.1-47.8 71.8-140.6 82.4-207.5 133.4-38.5 29.4-40.9 84 9.9 104.1 57.1 22.6 94.9-14 129-30.1 16.1 20.2 57 52.6 66.5 75.2-37.2 25.1-56.6 46.9-119.5 56.6-52.8 8.1-108.9-2.8-147.6-25.8-78.9-46.9-109.4-161.8-35.3-244.3 22.2-24.7 68.1-49.3 109-67.8 37.7-17.1 94.8-37.7 102.7-78.7 19.8-103.2-169.5-98.5-250.1-106.9zm-1203.2 67.3c-16.6-9.3-64.3-57.7-70.2-75.7 34-25.8 57.7-45.1 114.3-58.5 203.2-48.3 303.3 124.4 242.5 239.3-42.6 80.3-153.3 102.2-209.2 144.2-37.1 27.8-44.3 83.6 7.1 105 50.7 21.1 101.3-8.6 140.3-21.1l.8 106.2c-245 82.5-369.8-135.1-233.8-263.4 49-46.2 170.7-77.3 195.9-124.4 39.8-74.1-83.6-137.8-187.7-51.6zm311.9 349.6 144-.7.4-483.7 108.8-.6 1.5 484 143.6.5.9 99.4-399.2.5v-99.4zM255.4 241.9c183.7-37 221 114 118.7 147.1-25 8.1-94 13.2-118.6 4.8l-.1-151.9zm0 241.4c70-.3 154.8-2.1 158.1 72.7 3.6 82-89.9 75.6-157.7 75.4l-.4-148.1zm497.9-71.9 125.2-.5c-4.1 25.7-33.4 108.7-44.4 143.1-5.6 17.4-9.6 37.9-20.1 48.9l-60.7-191.5z"/><path id="path8" d="M-1193-309.8V718.4h592.4" style="fill:none"/><path id="path10" d="M-1193-309.8V373l-302.7-176.5 302.7-506.3z" style="fill-rule:evenodd;clip-rule:evenodd;fill:#51b948"/><path id="path12" class="st2" d="m-1193 373 592.4 345.4H-1193V373z"/></g></svg>